<svg width="964" height="1178" viewBox="0 0 964 1178" fill="none" xmlns="http://www.w3.org/2000/svg">
<g opacity="0.3" clip-path="url(#clip0_246_223)">
<g opacity="0.25">
<path style="mix-blend-mode:multiply" opacity="0.2" d="M-0.0394547 379.037C-0.0394547 694.257 133.29 978.368 346.62 1178H964V0H67.463C22.6829 121.348 -0.173295 249.69 -0.0394547 379.037Z" fill="url(#paint0_linear_246_223)"/>
<path style="mix-blend-mode:multiply" opacity="0.2" d="M298.143 566.84C297.809 784.631 362.787 997.518 484.681 1178H964V0H456.214C352.5 170.858 297.812 366.967 298.143 566.84Z" fill="url(#paint1_linear_246_223)"/>
<path style="mix-blend-mode:multiply" opacity="0.2" d="M964 1178V267.569C502.483 346.291 139.52 714.051 68.0151 1178H964Z" fill="url(#paint2_linear_246_223)"/>
<path style="mix-blend-mode:multiply" opacity="0.5" d="M964 1178H590.883C586.578 1147.18 584.424 1116.09 584.437 1084.97C584.437 819.427 739.491 590.124 964 482.658V1178Z" fill="url(#paint3_linear_246_223)"/>
<path style="mix-blend-mode:multiply" opacity="0.5" d="M964 1178H748.106C723.434 1113.35 710.826 1044.73 710.905 975.529C710.905 778.38 811.449 604.89 964 503.122V1178Z" fill="url(#paint4_linear_246_223)"/>
<path style="mix-blend-mode:multiply" opacity="0.5" d="M964 1178H770.798C739.584 1078.77 741.558 972.072 776.421 874.065C811.283 776.058 877.134 692.082 964 634.856V1178Z" fill="url(#paint5_linear_246_223)"/>
<path style="mix-blend-mode:multiply" opacity="0.5" d="M964 1178H590.883C586.578 1147.18 584.424 1116.09 584.437 1084.97C584.437 819.427 739.491 590.124 964 482.658V1178Z" fill="url(#paint6_linear_246_223)"/>
</g>
<g clip-path="url(#clip1_246_223)">
<path d="M781.405 404.658L780.866 405.286C778.523 407.925 776.397 410.749 774.509 413.733C770.637 419.791 767.802 426.456 766.119 433.454C765.893 434.309 765.754 434.955 765.684 435.321C765.615 435.688 765.684 435.6 765.684 435.653C764.749 440.106 764.277 444.644 764.277 449.195V556.787C764.276 559.527 764.026 562.261 763.53 564.955C768.118 563.575 772.453 561.46 776.367 558.689C779.841 556.201 782.743 552.993 784.879 549.283V516.124V493.593V450.051C784.847 439.617 788.316 429.477 794.727 421.269C801.138 413.061 810.116 407.264 820.211 404.815L820.698 404.71L821.827 404.483L822.417 404.379C823.613 404.158 824.819 404.001 826.03 403.908C826.76 403.908 827.524 403.768 828.289 403.75H829.47H830.946C831.207 403.75 831.467 403.75 831.711 403.75C832.388 403.75 833.031 403.75 833.691 403.873H833.882C838.671 404.277 843.363 405.456 847.779 407.363C852.895 409.567 857.569 412.689 861.571 416.578C865.932 420.812 869.399 425.886 871.765 431.496C874.132 437.106 875.35 443.137 875.346 449.23C875.346 470.295 862.735 488.079 843.922 493.244C843.332 493.401 842.724 493.558 842.185 493.681C839.023 494.41 835.789 494.773 832.544 494.763H783.02C771.642 494.763 779.546 504.012 779.546 515.443H833.031C869.127 515.164 895.983 485.583 895.983 449.248C895.992 440.537 894.285 431.91 890.961 423.865C887.637 415.82 882.761 408.515 876.614 402.372L875.52 401.325C875.155 400.958 874.773 400.627 874.408 400.295C873.088 399.073 871.75 397.91 870.395 396.805C870.031 396.508 869.648 396.229 869.266 395.949C868.467 395.356 867.668 394.78 866.886 394.204L865.896 393.541C864.767 392.791 863.621 392.093 862.422 391.464C861.971 391.202 861.536 390.958 861.085 390.731C860.042 390.15 859 389.626 857.958 389.161L856.95 388.672C845.344 383.451 832.481 381.718 819.916 383.681L818.874 383.838C817.658 384.047 816.424 384.291 815.226 384.571L814.809 384.675C813.489 384.99 812.221 385.339 810.97 385.705" fill="#8CC5D4"/>
<path d="M820.142 404.815C820.142 404.815 790.837 401.534 765.598 435.688C765.598 435.688 772.963 394.78 814.879 384.798C814.879 384.798 849.151 375.077 876.614 402.354L861.641 416.56C861.641 416.56 847.258 399.667 821.115 404.606L820.142 404.815Z" fill="url(#paint7_linear_246_223)"/>
<path d="M843.071 493.873C849.915 493.873 873.262 491.848 894.715 462.826C894.715 462.826 888.392 503.82 846.476 513.803C846.476 513.803 845.833 513.995 844.635 514.239L843.071 493.873Z" fill="url(#paint8_linear_246_223)"/>
<path d="M847.292 444.588H834.056V431.29C834.101 430.44 833.973 429.591 833.68 428.792C833.387 427.994 832.935 427.264 832.353 426.647C831.77 426.03 831.069 425.539 830.291 425.203C829.513 424.867 828.675 424.694 827.828 424.694C826.982 424.694 826.144 424.867 825.366 425.203C824.588 425.539 823.887 426.03 823.304 426.647C822.721 427.264 822.27 427.994 821.977 428.792C821.684 429.591 821.556 430.44 821.601 431.29V444.588H808.364C807.519 444.543 806.673 444.672 805.879 444.966C805.084 445.26 804.358 445.714 803.744 446.299C803.129 446.884 802.64 447.589 802.306 448.371C801.972 449.152 801.799 449.994 801.799 450.845C801.799 451.695 801.972 452.537 802.306 453.318C802.64 454.1 803.129 454.805 803.744 455.39C804.358 455.976 805.084 456.429 805.879 456.723C806.673 457.018 807.519 457.146 808.364 457.101H821.601V470.435C821.556 471.284 821.684 472.134 821.977 472.932C822.27 473.73 822.721 474.46 823.304 475.077C823.887 475.694 824.588 476.185 825.366 476.521C826.144 476.857 826.982 477.03 827.828 477.03C828.675 477.03 829.513 476.857 830.291 476.521C831.069 476.185 831.77 475.694 832.353 475.077C832.935 474.46 833.387 473.73 833.68 472.932C833.973 472.134 834.101 471.284 834.056 470.435V457.136H847.292C848.887 457.051 850.389 456.355 851.488 455.191C852.587 454.027 853.199 452.484 853.199 450.88C853.199 449.275 852.587 447.732 851.488 446.568C850.389 445.404 848.887 444.708 847.292 444.623V444.588Z" fill="#FC8D71"/>
<path d="M776.298 493.611V558.689C772.384 561.465 768.049 563.587 763.461 564.972C763.956 562.531 764.206 560.046 764.208 557.555V515.548H712.234C709.289 515.539 706.466 514.359 704.383 512.266C702.301 510.174 701.126 507.338 701.117 504.379C701.117 501.523 702.246 498.784 704.256 496.765C706.266 494.745 708.992 493.611 711.835 493.611H776.298Z" fill="url(#paint9_linear_246_223)"/>
<path d="M784.757 557.537C784.538 574.801 777.626 591.297 765.491 603.521C753.357 615.745 736.955 622.733 719.773 623C683.051 623.489 652.982 592.651 652.982 555.757V484.553C666.184 471.307 673.584 455.391 673.584 449.003V555.949C673.584 580.941 693.248 601.918 718.123 602.319C727.905 602.484 737.479 599.47 745.417 593.724C753.356 587.978 759.234 579.809 762.175 570.434C766.49 569.289 770.654 567.631 774.578 565.496C775.174 565.182 775.754 564.839 776.315 564.466C779.447 562.577 782.29 560.244 784.757 557.537Z" fill="url(#paint10_linear_246_223)"/>
<path d="M771.191 408.986L770.861 409.492C767.77 414.248 765.191 419.32 763.166 424.623L762.436 426.752C762.274 427.206 762.135 427.659 762.019 428.113C761.597 429.485 761.243 430.877 760.96 432.284C760.96 432.284 760.803 431.848 760.439 431.063C760.317 430.783 760.178 430.522 760.056 430.26C756.789 423.565 752.099 417.673 746.316 413L745.899 412.686C740.809 408.704 734.859 405.978 728.528 404.728H728.285C720.711 403.393 712.937 403.744 705.512 405.757C695.687 408.743 687.201 415.067 681.506 423.646L680.776 424.78C680.521 425.187 680.278 425.589 680.046 425.984C679.89 426.228 679.769 426.473 679.612 426.717L679.091 427.659C677.847 430.027 676.79 432.49 675.93 435.024L675.565 436.194C675.561 436.257 675.561 436.322 675.565 436.385C675.478 436.647 675.356 437.084 675.217 437.625C675.217 437.834 675.113 438.061 675.061 438.288C675.009 438.515 675.061 438.515 675.061 438.637C675.061 438.759 674.939 439.143 674.887 439.422C674.835 439.701 674.714 440.277 674.627 440.731C674.488 441.447 674.366 442.214 674.262 443C673.976 444.9 673.842 446.82 673.863 448.742V448.864C673.863 455.251 666.463 471.167 653.261 484.413V445.705C653.384 443.018 653.72 440.345 654.268 437.712C654.442 436.735 654.668 435.687 654.946 434.588C657.321 424.443 661.907 414.954 668.373 406.804V406.7C677.154 395.941 689.176 388.341 702.629 385.042H702.941C703.844 384.815 704.678 384.605 705.616 384.431C709.883 383.531 714.233 383.087 718.592 383.105H719.982C727.348 383.287 734.638 384.654 741.574 387.153C742.147 387.363 742.755 387.59 743.311 387.834C750.142 390.509 756.447 394.379 761.932 399.265C765.411 402.104 768.521 405.37 771.191 408.986Z" fill="url(#paint11_linear_246_223)"/>
</g>
</g>
<defs>
<linearGradient id="paint0_linear_246_223" x1="721.354" y1="377.026" x2="264.364" y2="848.085" gradientUnits="userSpaceOnUse">
<stop stop-color="#80C3FF"/>
<stop offset="1" stop-color="#5CFFA1"/>
</linearGradient>
<linearGradient id="paint1_linear_246_223" x1="844.609" y1="450.346" x2="422.1" y2="885.859" gradientUnits="userSpaceOnUse">
<stop stop-color="#80C3FF"/>
<stop offset="1" stop-color="#5CFFA1"/>
</linearGradient>
<linearGradient id="paint2_linear_246_223" x1="809.576" y1="731.045" x2="351.936" y2="1202.77" gradientUnits="userSpaceOnUse">
<stop stop-color="#80C3FF"/>
<stop offset="1" stop-color="#5CFFA1"/>
</linearGradient>
<linearGradient id="paint3_linear_246_223" x1="651.742" y1="1273.93" x2="1086.58" y2="468.41" gradientUnits="userSpaceOnUse">
<stop stop-color="#80C3FF"/>
<stop offset="1" stop-color="#5CFFA1"/>
</linearGradient>
<linearGradient id="paint4_linear_246_223" x1="721.709" y1="1219.4" x2="1105.46" y2="508.529" gradientUnits="userSpaceOnUse">
<stop stop-color="#80C3FF"/>
<stop offset="1" stop-color="#5CFFA1"/>
</linearGradient>
<linearGradient id="paint5_linear_246_223" x1="762.675" y1="1219.18" x2="1076.62" y2="637.601" gradientUnits="userSpaceOnUse">
<stop stop-color="#80C3FF"/>
<stop offset="1" stop-color="#5CFFA1"/>
</linearGradient>
<linearGradient id="paint6_linear_246_223" x1="651.742" y1="1273.93" x2="1086.58" y2="468.41" gradientUnits="userSpaceOnUse">
<stop stop-color="#80C3FF"/>
<stop offset="1" stop-color="#5CFFA1"/>
</linearGradient>
<linearGradient id="paint7_linear_246_223" x1="860.876" y1="431.621" x2="799.117" y2="407.663" gradientUnits="userSpaceOnUse">
<stop stop-color="#8CC5D4" stop-opacity="0"/>
<stop offset="0.11" stop-color="#8DC6D5" stop-opacity="0.07"/>
<stop offset="0.32" stop-color="#91C9D7" stop-opacity="0.26"/>
<stop offset="0.62" stop-color="#97CEDB" stop-opacity="0.57"/>
<stop offset="0.99" stop-color="#A0D4E0" stop-opacity="0.98"/>
<stop offset="1" stop-color="#A0D4E0"/>
</linearGradient>
<linearGradient id="paint8_linear_246_223" x1="837.53" y1="501.744" x2="872.089" y2="488.223" gradientUnits="userSpaceOnUse">
<stop stop-color="#A9DAE5" stop-opacity="0"/>
<stop offset="0.17" stop-color="#A8D9E4" stop-opacity="0.15"/>
<stop offset="0.56" stop-color="#A4D7E2" stop-opacity="0.53"/>
<stop offset="1" stop-color="#A0D4E0"/>
</linearGradient>
<linearGradient id="paint9_linear_246_223" x1="701.117" y1="529.283" x2="776.298" y2="529.283" gradientUnits="userSpaceOnUse">
<stop stop-color="#0E72A8"/>
<stop offset="1" stop-color="#0E72A8"/>
</linearGradient>
<linearGradient id="paint10_linear_246_223" x1="653" y1="536.002" x2="784.775" y2="536.002" gradientUnits="userSpaceOnUse">
<stop stop-color="#0E72A8"/>
<stop offset="1" stop-color="#0E72A8"/>
</linearGradient>
<linearGradient id="paint11_linear_246_223" x1="714.284" y1="417.328" x2="688.131" y2="495.44" gradientUnits="userSpaceOnUse">
<stop stop-color="#0E72A8"/>
<stop offset="1" stop-color="#1D88CC"/>
</linearGradient>
<clipPath id="clip0_246_223">
<rect width="964" height="1178" fill="white"/>
</clipPath>
<clipPath id="clip1_246_223">
<rect width="243" height="240" fill="white" transform="translate(653 383)"/>
</clipPath>
</defs>
</svg>
